<svg version="1.0" xmlns="http://www.w3.org/2000/svg"
 width="100%" height="100%" viewBox="0 0 431.000000 483.000000"
 preserveAspectRatio="xMidYMid meet">
  <defs>
    <linearGradient id="goldGrad" x1="0%" y1="0%" x2="100%" y2="100%">
      <stop offset="0%" stop-color="#FFF6C2"/>
      <stop offset="25%" stop-color="#F0C75A"/>
      <stop offset="60%" stop-color="#D4AF37"/>
      <stop offset="85%" stop-color="#9B7414"/>
      <stop offset="100%" stop-color="#6B4E02"/>
    </linearGradient>
    <filter id="glow" x="-20%" y="-20%" width="140%" height="140%">
      <feDropShadow dx="0" dy="2" stdDeviation="3" flood-color="#D4AF37" flood-opacity="0.5"/>
    </filter>
  </defs>
<g transform="translate(0.000000,483.000000) scale(0.100000,-0.100000)"
 fill="url(#goldGrad)" stroke="none" filter="url(#glow)">
<path d="M2488 4823 c7 -3 16 -2 19 1 4 3 -2 6 -13 5 -11 0 -14 -3 -6 -6z"/>
<path d="M2438 4813 c7 -3 16 -2 19 1 4 3 -2 6 -13 5 -11 0 -14 -3 -6 -6z"/>
<path d="M4105 4780 c3 -5 8 -10 11 -10 2 0 4 5 4 10 0 6 -5 10 -11 10 -5 0
-7 -4 -4 -10z"/>
<path d="M1953 4750 c-25 -10 -53 -58 -53 -90 0 -29 15 -54 78 -133 l56 -69
24 69 c44 126 47 138 32 172 -21 51 -81 73 -137 51z m83 -17 c35 -32 46 -71
33 -112 -6 -20 -14 -40 -18 -46 -3 -5 -6 -14 -7 -20 -1 -5 -7 -21 -12 -35
l-10 -25 -12 28 c-7 15 -17 27 -21 27 -5 0 -6 7 -3 15 5 11 2 13 -12 8 -11 -4
-15 -3 -10 5 3 6 -4 20 -16 32 -29 27 -31 71 -3 85 11 6 20 17 20 25 0 8 11
17 25 21 14 4 25 7 26 8 1 1 10 -7 20 -16z"/>
<path d="M1950 4630 c0 -5 5 -10 10 -10 6 0 10 5 10 10 0 6 -4 10 -10 10 -5 0
-10 -4 -10 -10z"/>
<path d="M3216 4735 c4 -8 8 -15 10 -15 2 0 4 7 4 15 0 8 -4 15 -10 15 -5 0
-7 -7 -4 -15z"/>
<path d="M3190 4715 c0 -5 5 -17 10 -25 5 -8 10 -10 10 -5 0 6 -5 17 -10 25
-5 8 -10 11 -10 5z"/>
<path d="M3160 4680 c0 -5 5 -10 11 -10 5 0 7 5 4 10 -3 6 -8 10 -11 10 -2 0
-4 -4 -4 -10z"/>
<path d="M2146 4597 c-17 -12 -52 -134 -42 -144 6 -7 105 26 134 43 28 18 29
67 2 94 -23 23 -68 26 -94 7z m75 -21 c15 -32 4 -73 -21 -81 -55 -17 -77 33
-35 79 30 32 42 33 56 2z"/>
<path d="M1791 4564 c-24 -31 -25 -35 -10 -68 8 -18 31 -32 82 -51 38 -14 71
-24 73 -23 8 9 -37 141 -52 153 -31 23 -70 18 -93 -11z m77 -3 c14 -9 36 -90
27 -99 -3 -3 -23 1 -46 8 -46 15 -71 52 -51 72 9 9 12 9 12 0 0 -7 5 -12 11
-12 5 0 7 5 4 10 -14 23 16 38 43 21z"/>
<path d="M1810 4505 c7 -9 15 -13 17 -11 7 7 -7 26 -19 26 -6 0 -6 -6 2 -15z"/>
<path d="M2020 4401 c-71 -23 -225 -140 -207 -157 4 -4 15 0 24 8 91 81 364
115 471 59 55 -28 63 -22 17 13 -88 68 -227 103 -305 77z m133 -21 c21 -4 41
-11 45 -15 4 -4 -9 -4 -28 -1 -28 6 -32 5 -20 -4 12 -10 12 -11 -5 -5 -26 10
-33 10 -74 0 -23 -5 -31 -4 -27 4 4 6 2 11 -3 11 -6 0 -11 4 -11 9 0 11 37 19
65 13 11 -2 37 -7 58 -12z m-143 -10 c0 -17 -5 -25 -14 -22 -4 1 -14 -3 -22
-9 -8 -7 -18 -8 -22 -4 -4 4 -1 10 6 12 7 3 18 11 25 19 14 16 27 18 27 4z
m-90 -50 c0 -5 -5 -10 -11 -10 -5 0 -7 5 -4 10 3 6 8 10 11 10 2 0 4 -4 4 -10z"/>
<path d="M3641 4314 c0 -11 3 -14 6 -6 3 7 2 16 -1 19 -3 4 -6 -2 -5 -13z"/>
<path d="M2100 4244 c-143 -25 -283 -89 -376 -170 -101 -90 -210 -202 -203
-209 3 -3 32 16 65 42 239 192 628 265 998 187 38 -8 71 -12 73 -10 11 10
-160 99 -243 125 -89 29 -248 47 -314 35z m218 -29 c42 -9 95 -24 117 -35 22
-10 51 -22 65 -26 l25 -7 -23 -8 c-13 -5 -33 -7 -45 -4 -88 21 -427 1 -500
-30 -20 -8 -43 -12 -51 -9 -9 3 -16 2 -16 -4 0 -5 -11 -9 -25 -9 -14 0 -33 -7
-43 -15 -9 -8 -26 -18 -37 -22 l-20 -6 20 16 20 17 -20 -8 c-11 -4 -25 -8 -32
-8 -7 0 -10 -4 -7 -9 8 -13 -16 -38 -36 -38 -10 0 -23 -7 -30 -15 -7 -8 -18
-15 -24 -15 -6 0 1 10 17 21 15 12 46 39 68 60 29 28 47 38 60 34 14 -5 17 -2
13 8 -5 14 2 19 106 65 133 59 260 74 398 47z"/>
<path d="M1836 4112 c-3 -5 1 -9 9 -9 8 0 12 4 9 9 -3 4 -7 8 -9 8 -2 0 -6 -4
-9 -8z"/>
<path d="M1020 4210 c0 -5 5 -10 10 -10 6 0 10 5 10 10 0 6 -4 10 -10 10 -5 0
-10 -4 -10 -10z"/>
<path d="M195 4200 c3 -5 8 -10 11 -10 2 0 4 5 4 10 0 6 -5 10 -11 10 -5 0 -7
-4 -4 -10z"/>
<path d="M4260 4110 c0 -5 5 -10 11 -10 5 0 7 5 4 10 -3 6 -8 10 -11 10 -2 0
-4 -4 -4 -10z"/>
<path d="M2075 4046 c-179 -42 -326 -139 -477 -315 -28 -33 -21 -54 9 -24 26
26 165 96 251 127 76 27 157 46 278 67 141 23 474 -1 577 -42 51 -21 38 -3
-25 37 -97 59 -208 111 -289 134 -95 27 -244 34 -324 16z m260 -16 c6 -4 31
-13 57 -20 28 -7 45 -17 41 -23 -4 -6 0 -8 11 -4 20 8 68 -2 61 -12 -2 -4 11
-14 30 -21 32 -13 56 -40 35 -40 -6 0 -10 3 -10 8 0 4 -35 8 -78 10 -42 1 -79
7 -80 12 -2 6 -7 8 -11 5 -11 -6 -156 -19 -238 -19 -39 -1 -67 -3 -62 -6 5 -4
-28 -11 -73 -18 -72 -10 -156 -36 -210 -63 -10 -5 -25 -6 -34 -2 -12 4 -15 3
-10 -5 4 -7 2 -12 -4 -12 -6 0 -18 -7 -27 -15 -15 -15 -33 -12 -33 6 0 5 20
22 45 38 24 15 41 32 37 36 -4 5 1 5 11 2 10 -4 16 -3 12 3 -6 10 81 69 103
70 6 0 12 5 12 10 0 6 14 10 31 10 16 0 28 4 25 9 -6 9 99 37 164 44 56 7 184
4 195 -3z m-646 -251 c-22 -13 -31 -11 -17 5 7 8 17 12 22 9 4 -3 2 -9 -5 -14z"/>
<path d="M2138 3933 c7 -3 16 -2 19 1 4 3 -2 6 -13 5 -11 0 -14 -3 -6 -6z"/>
<path d="M3376 4045 c4 -8 8 -15 10 -15 2 0 4 7 4 15 0 8 -4 15 -10 15 -5 0
-7 -7 -4 -15z"/>
<path d="M4178 4053 c7 -3 16 -2 19 1 4 3 -2 6 -13 5 -11 0 -14 -3 -6 -6z"/>
<path d="M3420 3951 c-39 -12 -88 -39 -175 -97 -44 -29 -103 -61 -131 -73 -62
-24 -199 -51 -260 -51 -24 0 -44 -4 -44 -9 0 -5 20 -26 45 -46 57 -47 174 -89
223 -80 40 7 108 40 130 61 18 19 56 18 72 -1 21 -26 5 -210 -25 -303 -27 -80
-91 -201 -129 -244 -66 -75 -109 -133 -127 -172 -19 -43 -37 -136 -27 -136 3
0 17 24 32 54 24 49 110 140 226 241 19 17 56 55 81 85 142 172 175 296 127
482 -20 78 -21 93 -10 145 6 32 25 77 42 101 16 23 30 45 30 47 0 7 -51 4 -80
-4z m25 -36 c-3 -5 -8 -18 -11 -27 -4 -10 -10 -18 -14 -18 -4 0 -11 -26 -16
-57 -9 -66 -9 -61 5 -128 29 -130 33 -179 22 -231 -7 -29 -19 -58 -27 -64 -7
-7 -14 -18 -14 -24 0 -6 5 -4 10 4 5 8 10 11 10 7 0 -11 -32 -60 -50 -75 -8
-8 -9 -11 -2 -7 20 10 14 -5 -15 -40 -16 -17 -33 -40 -40 -51 -9 -13 -11 -14
-7 -3 3 10 0 20 -7 25 -7 4 -10 3 -5 -4 11 -19 -13 -62 -60 -108 -46 -43 -79
-61 -53 -26 13 15 12 16 -4 3 -9 -7 -16 -21 -15 -30 2 -10 -4 -15 -15 -15 -10
1 -16 0 -13 -3 3 -3 -6 -15 -20 -25 -14 -11 -23 -22 -20 -25 4 -4 -52 -63 -60
-63 -2 0 -1 7 2 15 4 8 9 15 13 15 4 0 13 10 18 23 6 13 33 50 60 83 28 33 63
85 80 117 17 31 34 53 38 49 5 -4 5 -2 2 5 -9 15 3 44 15 37 6 -4 8 2 3 15 -3
11 -1 29 5 38 9 15 10 14 5 -7 -5 -22 -4 -23 5 -7 7 10 9 25 6 33 -3 9 0 27 8
42 7 15 17 56 21 92 24 203 -12 251 -130 176 -29 -19 -56 -32 -59 -29 -3 3
-12 1 -19 -5 -10 -8 -31 -9 -73 -2 -32 6 -62 10 -66 10 -5 0 -8 6 -8 14 0 8
-7 17 -16 20 -8 3 -12 2 -9 -4 12 -19 -11 -10 -45 18 l-34 29 74 2 c41 1 80 7
87 12 6 6 22 8 35 4 15 -4 19 -3 10 3 -9 6 3 14 43 25 32 9 98 43 156 82 55
37 115 73 132 80 37 15 70 16 62 0z"/>
<path d="M3391 3834 c0 -11 3 -14 6 -6 3 7 2 16 -1 19 -3 4 -6 -2 -5 -13z"/>
<path d="M3391 3664 c0 -11 3 -14 6 -6 3 7 2 16 -1 19 -3 4 -6 -2 -5 -13z"/>
<path d="M761 3914 c0 -11 3 -14 6 -6 3 7 2 16 -1 19 -3 4 -6 -2 -5 -13z"/>
<path d="M657 3869 c7 -7 15 -10 18 -7 3 3 -2 9 -12 12 -14 6 -15 5 -6 -5z"/>
<path d="M3990 3850 c0 -5 5 -10 11 -10 5 0 7 5 4 10 -3 6 -8 10 -11 10 -2 0
-4 -4 -4 -10z"/>
<path d="M2244 3785 c-14 -22 -19 -54 -22 -149 -4 -105 -7 -124 -25 -143 -23
-26 -35 -28 -71 -11 -32 14 -34 20 -41 148 -6 106 -19 170 -35 170 -5 0 -2
-16 6 -35 23 -55 22 -55 -74 -49 -85 7 -89 6 -95 -15 -8 -31 18 -51 66 -51 67
0 117 -11 117 -26 0 -11 -21 -13 -92 -11 -88 2 -93 1 -96 -19 -5 -32 16 -41
103 -47 44 -4 81 -6 83 -7 1 0 2 -9 2 -20 0 -33 35 -60 79 -60 43 0 91 31 91
59 0 19 40 31 110 31 46 0 62 12 58 41 -3 23 -6 24 -85 22 -72 -1 -83 1 -83
16 0 13 12 17 68 19 93 4 104 8 100 40 -3 27 -3 27 -85 27 -91 -1 -97 4 -68
59 20 38 12 46 -11 11z m-213 -85 c32 0 39 -3 39 -20 0 -17 -7 -20 -39 -20
-21 0 -59 3 -85 6 -37 6 -46 11 -46 27 0 18 5 19 46 13 26 -3 64 -6 85 -6z
m359 -9 c0 -21 -35 -31 -106 -31 -37 0 -44 3 -44 19 0 17 8 20 48 23 26 2 59
4 75 5 20 1 27 -3 27 -16z m-367 -91 c40 0 47 -3 47 -20 0 -17 -7 -20 -47 -20
-85 0 -123 10 -123 33 0 17 5 19 38 13 20 -3 58 -6 85 -6z m367 -9 c0 -16 -9
-21 -42 -25 -112 -14 -108 -14 -108 10 0 21 5 23 52 26 29 2 63 4 75 5 17 2
23 -2 23 -16z"/>
<path d="M780 3760 c0 -7 10 -20 23 -30 12 -10 34 -40 47 -66 26 -51 27 -56
20 -282 -2 -78 0 -87 34 -157 58 -116 161 -218 364 -358 77 -54 159 -130 168
-159 10 -31 22 -19 15 15 -18 75 -48 116 -171 233 -80 75 -94 92 -142 171 -48
78 -62 116 -88 223 -37 157 -22 190 66 144 61 -31 129 -40 180 -24 75 23 194
117 194 152 0 3 -46 3 -102 0 -139 -5 -219 13 -366 84 -92 44 -130 58 -179 62
-46 3 -63 1 -63 -8z m132 -31 c20 -5 43 -15 50 -22 7 -6 18 -12 23 -13 23 -3
55 -17 55 -25 0 -5 7 -6 15 -3 8 4 17 -1 21 -10 4 -11 13 -15 26 -10 15 4 18
3 13 -6 -5 -8 -4 -11 2 -7 6 4 30 0 54 -8 24 -9 63 -16 86 -17 27 -2 43 -7 43
-15 0 -7 11 -13 25 -13 14 0 25 3 25 8 0 4 22 8 49 10 l49 3 -34 -36 c-20 -21
-39 -33 -45 -29 -8 5 -9 3 -4 -6 6 -10 1 -11 -21 -6 -20 4 -24 4 -15 -3 11 -7
6 -13 -24 -25 -45 -19 -95 -21 -95 -3 0 8 -4 7 -11 -3 -8 -11 -12 -12 -16 -2
-2 6 -13 12 -24 12 -24 0 -25 17 -1 23 9 2 5 3 -9 1 -15 -2 -39 1 -55 5 -36
10 -73 -6 -79 -33 -13 -69 -13 -100 1 -121 9 -13 14 -32 13 -42 -3 -22 3 -38
43 -123 55 -116 90 -163 205 -277 62 -62 113 -118 113 -124 0 -7 -15 3 -32 22
-18 19 -39 33 -46 31 -7 -2 -15 4 -18 13 -3 8 -13 15 -21 15 -8 0 -11 4 -8 10
3 6 -1 7 -9 4 -9 -3 -16 -1 -16 5 0 6 -5 11 -11 11 -15 0 -39 26 -31 34 3 4 0
5 -8 2 -8 -3 -29 7 -46 22 -95 85 -128 115 -119 109 6 -3 11 3 11 14 0 12 -4
15 -10 9 -13 -13 -36 7 -29 26 3 8 -1 14 -11 14 -20 0 -35 28 -31 63 2 15 -1
25 -5 22 -5 -3 -7 -12 -3 -20 3 -8 1 -15 -5 -15 -14 0 -24 29 -17 51 5 13 1
19 -10 19 -11 0 -15 5 -12 14 3 8 1 16 -4 18 -14 5 -13 130 1 174 15 44 6 141
-15 164 -8 9 -15 20 -15 23 0 4 -12 26 -26 49 l-26 41 29 -7 c15 -4 45 -11 65
-17z"/>
<path d="M1235 3580 c-3 -5 -1 -10 4 -10 6 0 11 5 11 10 0 6 -2 10 -4 10 -3 0
-8 -4 -11 -10z"/>
<path d="M991 3484 c0 -11 3 -14 6 -6 3 7 2 16 -1 19 -3 4 -6 -2 -5 -13z"/>
<path d="M970 3315 c7 -9 15 -13 17 -11 7 7 -7 26 -19 26 -6 0 -6 -6 2 -15z"/>
<path d="M920 3306 c0 -2 7 -9 15 -16 13 -11 14 -10 9 4 -5 14 -24 23 -24 12z"/>
<path d="M1060 3180 c0 -5 5 -10 11 -10 5 0 7 5 4 10 -3 6 -8 10 -11 10 -2 0
-4 -4 -4 -10z"/>
<path d="M1166 2979 c2 -4 13 -7 24 -6 23 2 17 10 -10 12 -10 1 -17 -2 -14 -6z"/>
<path d="M2650 3646 c0 -2 13 -34 30 -70 70 -156 96 -322 70 -448 -12 -57 -68
-189 -91 -212 -5 -6 -9 -24 -9 -40 0 -26 6 -18 41 49 22 44 44 84 49 90 4 5
18 39 30 74 24 72 29 194 11 273 -19 81 -106 288 -122 288 -5 0 -9 -2 -9 -4z"/>
<path d="M2837 3568 c11 -13 30 -41 41 -64 26 -51 99 -267 113 -336 l11 -51
65 69 c68 73 115 156 138 244 16 58 20 144 8 138 -72 -36 -112 -48 -160 -48
-64 0 -156 24 -195 51 -36 26 -46 24 -21 -3z m143 -62 c46 -9 76 -11 78 -6 5
14 46 12 61 -2 8 -8 11 -8 8 -2 -6 11 21 23 48 24 24 0 8 -121 -21 -167 -8
-12 -14 -28 -14 -35 0 -13 -8 -23 -76 -108 -37 -45 -60 -40 -69 18 -4 20 -13
54 -21 75 -8 20 -14 49 -14 62 0 14 -4 25 -10 25 -5 0 -10 12 -10 28 0 21 2
24 10 12 5 -8 10 -10 10 -4 0 19 -13 24 -28 11 -13 -10 -14 -8 -7 12 4 15 3
21 -3 17 -5 -3 -12 3 -15 14 -3 12 1 20 12 23 11 3 10 5 -5 6 -12 0 -25 8 -28
17 -5 13 -3 14 6 6 7 -5 47 -17 88 -26z"/>
<path d="M2803 3549 c-2 -23 3 -25 10 -4 4 8 3 16 -1 19 -4 3 -9 -4 -9 -15z"/>
<path d="M1448 3481 c-73 -77 -231 -108 -340 -66 -13 5 -15 2 -11 -17 36 -158
107 -264 235 -356 l47 -32 6 57 c26 229 53 356 86 410 25 41 13 43 -23 4z
m-36 -73 c-7 -7 -12 -32 -13 -57 0 -36 -2 -41 -9 -26 -6 13 -7 -1 -4 -40 3
-39 1 -53 -4 -40 -7 15 -9 9 -9 -25 1 -72 -13 -160 -26 -160 -7 0 -35 22 -62
49 -83 82 -95 99 -89 118 5 15 4 15 -4 3 -9 -12 -13 -9 -22 15 -6 17 -18 43
-26 59 -8 16 -14 40 -14 54 0 22 3 24 33 18 51 -11 89 -8 150 13 31 11 57 18
57 15 0 -3 10 2 22 10 24 17 39 13 20 -6z"/>
<path d="M2827 3489 c4 -13 8 -18 11 -10 2 7 -1 18 -6 23 -8 8 -9 4 -5 -13z"/>
<path d="M1535 3490 c-4 -6 -9 -84 -12 -173 -7 -184 4 -289 43 -412 27 -85
104 -258 112 -251 2 3 -14 51 -36 108 -72 186 -110 436 -97 634 7 98 5 118
-10 94z"/>
<path d="M2358 3460 c-26 -16 -59 -47 -72 -67 -32 -50 -53 -130 -37 -146 8 -8
11 -3 11 21 0 40 28 97 66 136 61 61 156 82 231 51 41 -17 53 -19 53 -6 0 16
-92 41 -149 41 -45 0 -66 -6 -103 -30z"/>
<path d="M1820 3462 c-38 -5 -110 -34 -110 -43 0 -12 5 -11 47 6 19 8 59 15
87 15 99 -1 176 -65 217 -182 l19 -53 -5 49 c-6 61 -39 120 -87 159 -38 30
-123 55 -168 49z"/>
<path d="M2136 3411 c-3 -5 -4 -16 0 -24 7 -20 46 -9 42 12 -4 18 -33 27 -42
12z"/>
<path d="M2110 3360 c0 -5 5 -10 11 -10 5 0 7 5 4 10 -3 6 -8 10 -11 10 -2 0
-4 -4 -4 -10z"/>
<path d="M2460 3345 c-57 -18 -124 -75 -151 -127 -28 -55 -8 -44 33 17 48 72
114 106 210 107 50 0 65 3 48 8 -38 12 -90 10 -140 -5z"/>
<path d="M1718 3332 c-9 -4 15 -7 55 -7 61 -1 81 -5 119 -28 50 -29 94 -76
113 -121 7 -16 15 -24 19 -18 10 17 -42 94 -87 128 -23 17 -57 36 -76 43 -37
12 -116 14 -143 3z"/>
<path d="M3470 3330 c0 -5 5 -10 10 -10 6 0 10 5 10 10 0 6 -4 10 -10 10 -5 0
-10 -4 -10 -10z"/>
<path d="M2504 3295 c-64 -20 -98 -41 -132 -80 -32 -36 -50 -80 -37 -93 15
-15 140 -6 175 12 63 33 120 99 120 140 0 8 -14 19 -31 25 -38 13 -42 13 -95
-4z m99 -39 c-3 -35 -54 -92 -102 -112 -35 -15 -147 -19 -154 -6 -2 4 3 19 13
34 l17 28 21 -25 c14 -16 32 -25 52 -25 36 0 40 15 6 24 -28 7 -40 41 -23 66
14 24 60 46 65 31 2 -5 10 -7 18 -4 15 6 20 -12 5 -21 -5 -3 -7 -15 -4 -26 4
-14 1 -19 -8 -15 -9 3 -14 -3 -15 -20 -2 -32 9 -32 35 1 23 30 26 55 10 85
-10 19 -8 20 28 17 35 -3 38 -5 36 -32z"/>
<path d="M1708 3280 c-24 -15 -23 -33 7 -80 31 -49 85 -86 148 -100 57 -12
127 -3 127 17 0 40 -52 100 -122 142 -43 25 -134 37 -160 21z m70 -36 c-14
-31 4 -75 41 -97 22 -13 35 -14 65 -6 20 6 40 17 43 25 8 21 17 17 36 -15 l17
-29 -31 -6 c-69 -13 -134 5 -189 53 -26 23 -60 71 -60 84 0 12 41 24 66 19 20
-4 21 -7 12 -28z m28 1 c-7 -20 4 -19 20 3 12 16 13 16 19 0 4 -9 13 -14 20
-12 7 3 22 -7 32 -23 20 -27 20 -29 2 -47 -21 -22 -69 -15 -69 10 0 10 -6 14
-15 10 -18 -7 -20 5 -2 23 10 10 9 11 -5 6 -12 -5 -16 -2 -13 12 2 10 4 21 4
26 1 4 4 7 7 7 3 0 4 -7 0 -15z"/>
<path d="M1831 3234 c0 -11 3 -14 6 -6 3 7 2 16 -1 19 -3 4 -6 -2 -5 -13z"/>
<path d="M4150 3160 c0 -5 5 -10 11 -10 5 0 7 5 4 10 -3 6 -8 10 -11 10 -2 0
-4 -4 -4 -10z"/>
<path d="M2144 3036 c-12 -31 0 -51 30 -51 36 0 56 26 37 49 -17 20 -60 21
-67 2z m49 -33 c-3 -7 -9 -13 -14 -13 -11 0 -12 34 -2 43 9 10 22 -13 16 -30z"/>
<path d="M2172 2913 c-13 -26 -4 -43 24 -43 29 0 41 24 24 45 -17 20 -37 19
-48 -2z m38 -13 c0 -5 -4 -10 -10 -10 -5 0 -10 5 -10 10 0 6 5 10 10 10 6 0
10 -4 10 -10z"/>
<path d="M914 2910 c-18 -4 -48 -17 -68 -29 -45 -28 -170 -165 -156 -169 7 -3
20 5 30 16 42 45 90 65 158 66 58 1 73 -3 112 -28 76 -49 155 -158 195 -271 4
-11 9 -15 12 -9 7 20 -47 207 -81 280 -23 49 -46 81 -77 106 -49 40 -79 49
-125 38z m94 -36 c18 -10 38 -31 45 -46 6 -16 15 -28 19 -28 3 0 12 -17 19
-37 6 -21 17 -41 23 -45 8 -5 8 -10 0 -18 -8 -8 -19 -1 -42 24 -32 37 -115 86
-144 86 -10 0 -18 3 -18 8 0 4 -22 5 -50 4 -27 -2 -50 -8 -50 -13 0 -5 -6 -9
-12 -9 -7 1 -2 10 11 21 13 11 31 17 39 14 12 -4 12 -2 4 8 -12 14 -7 27 10
27 5 0 6 -6 3 -12 -4 -7 -1 -6 7 2 18 21 59 38 84 35 11 -1 35 -10 52 -21z
m117 -204 c3 -5 1 -10 -4 -10 -6 0 -11 5 -11 10 0 6 2 10 4 10 3 0 8 -4 11
-10z"/>
<path d="M1065 2769 c-4 -6 -5 -12 -2 -15 2 -3 7 2 10 11 7 17 1 20 -8 4z"/>
<path d="M1426 2892 c-2 -4 -1 -14 4 -22 7 -11 9 -9 7 8 -1 24 -3 26 -11 14z"/>
<path d="M2200 2814 c0 -31 73 -199 111 -255 43 -64 126 -142 180 -170 21 -10
68 -30 105 -44 136 -51 234 -131 287 -235 15 -30 27 -47 27 -38 0 43 -98 172
-167 220 -25 17 -86 48 -135 70 -125 54 -188 98 -239 168 -57 78 -137 268
-123 292 3 4 -6 8 -20 8 -17 0 -26 -5 -26 -16z"/>
<path d="M2302 2810 c0 -14 2 -19 5 -12 2 6 2 18 0 25 -3 6 -5 1 -5 -13z"/>
<path d="M2640 2774 c0 -39 42 -169 82 -249 35 -72 82 -135 172 -233 125 -136
168 -226 170 -350 1 -65 -4 -86 -26 -132 -35 -72 -117 -154 -189 -191 -33 -16
-59 -34 -59 -40 0 -18 141 63 194 112 29 26 65 71 81 101 28 50 30 60 30 163
0 121 -12 160 -78 257 -34 51 -52 62 -42 26 5 -20 4 -21 -5 -5 -6 9 -8 22 -5
27 4 6 -23 41 -59 78 -36 37 -74 78 -85 91 -44 51 -117 190 -148 281 -23 68
-32 86 -33 64z m310 -504 c0 -5 -2 -10 -4 -10 -3 0 -8 5 -11 10 -3 6 -1 10 4
10 6 0 11 -4 11 -10z"/>
<path d="M3755 2733 c-37 -39 -61 -88 -80 -164 -16 -62 -48 -140 -70 -167 -83
-106 -178 -145 -284 -117 -49 13 -123 55 -154 86 -37 39 -37 17 0 -30 123
-158 355 -165 493 -15 47 51 70 99 70 146 0 41 29 103 69 148 39 44 48 83 27
115 -21 32 -39 31 -71 -2z m36 -23 c6 0 7 5 4 10 -3 6 -2 10 3 10 5 0 12 -11
14 -25 3 -14 1 -25 -3 -25 -5 0 -8 -6 -6 -12 1 -7 -4 -12 -11 -10 -8 1 -12 -3
-10 -10 3 -7 -7 -23 -20 -35 -14 -13 -21 -23 -17 -23 4 0 3 -6 -2 -12 -13 -16
-39 -100 -48 -150 -3 -21 -10 -38 -15 -38 -6 0 -10 -9 -10 -19 0 -10 -7 -21
-14 -24 -11 -4 -13 -1 -9 11 3 9 3 14 -1 10 -4 -3 -8 -13 -10 -21 -5 -35 -86
-96 -118 -89 -5 1 -8 -3 -8 -10 0 -6 -3 -9 -6 -5 -3 3 -18 1 -32 -4 -27 -10
-122 -3 -122 9 0 4 20 7 44 7 25 0 40 -3 33 -7 -8 -5 -6 -8 6 -8 9 0 17 4 17
10 0 5 19 18 43 28 23 11 55 33 71 50 16 17 34 29 39 25 6 -3 7 -1 4 4 -4 6 2
18 13 28 11 10 20 24 20 32 0 7 4 13 10 13 5 0 6 7 3 17 -4 11 -3 14 5 9 7 -4
13 -1 13 6 4 47 9 70 19 89 7 12 14 36 17 53 3 17 9 32 13 34 5 2 6 10 3 19
-4 10 -2 14 4 10 6 -4 14 4 17 18 4 14 11 23 16 20 6 -3 10 2 11 12 0 10 3 13
6 6 2 -7 9 -13 14 -13z"/>
<path d="M3693 2512 c-1 -22 0 -24 9 -8 6 10 6 22 2 26 -5 5 -10 -3 -11 -18z"/>
<path d="M782 2708 c-55 -26 -76 -65 -67 -121 9 -49 52 -97 88 -97 13 0 44 7
68 16 55 19 129 20 167 0 16 -8 43 -31 60 -50 37 -43 42 -44 42 -11 0 59 -65
186 -120 233 -61 53 -164 66 -238 30z m173 -14 c41 -17 87 -63 80 -81 -2 -7 1
-10 8 -8 13 5 47 -56 47 -85 0 -18 -1 -18 -40 1 -45 22 -108 24 -195 5 -81
-18 -111 0 -120 74 -4 33 39 88 72 93 12 2 26 6 29 10 13 12 81 7 119 -9z"/>
<path d="M3429 2710 c-49 -8 -140 -50 -174 -78 -32 -27 -98 -112 -92 -118 3
-3 26 11 53 31 94 72 220 118 299 109 47 -5 105 -23 123 -37 9 -7 12 2 12 42
0 28 -1 51 -2 51 -73 7 -184 7 -219 0z m193 -33 c11 -17 10 -27 -2 -27 -5 0
-10 8 -10 18 0 12 -3 13 -8 4 -6 -9 -20 -10 -55 -3 -58 11 -131 4 -176 -16
-26 -12 -35 -12 -45 -2 -8 9 -8 10 2 5 7 -4 20 -2 29 6 30 25 96 37 178 32 44
-3 83 -11 87 -17z m-352 -71 c0 -2 -7 -7 -16 -10 -8 -3 -12 -2 -9 4 6 10 25
14 25 6z"/>
<path d="M1735 2593 c85 -135 198 -250 327 -335 82 -55 190 -111 293 -153 133
-55 176 -79 231 -128 67 -61 97 -124 102 -212 10 -196 -138 -337 -371 -352
-221 -14 -408 70 -501 226 -49 82 -69 152 -64 222 7 95 51 138 170 164 58 12
60 13 22 14 -68 2 -135 -24 -178 -68 -28 -28 -37 -45 -32 -58 4 -9 -10 1 -31
24 -42 45 -100 67 -152 57 -50 -10 -46 -23 9 -22 95 0 150 -57 150 -159 1 -66
39 -189 57 -186 7 2 10 -4 7 -12 -9 -21 66 -115 130 -164 167 -129 452 -159
635 -67 161 82 238 214 229 390 -3 68 -10 91 -38 144 -58 109 -170 187 -360
252 -59 21 -113 44 -240 103 -25 11 -47 23 -50 26 -3 3 -21 15 -40 25 -89 49
-290 237 -290 271 0 7 -7 16 -16 19 -15 6 -15 3 1 -21z m395 -342 c0 -4 15
-12 33 -17 23 -7 28 -12 16 -16 -9 -4 -28 4 -45 18 -16 13 -23 23 -16 24 6 0
12 -4 12 -9z m85 -40 c-3 -6 3 -10 12 -9 10 0 56 -16 103 -36 47 -20 86 -36
88 -36 1 1 18 -4 37 -11 29 -11 32 -15 22 -28 -10 -12 -9 -13 6 -4 25 13 71
-10 148 -78 42 -37 59 -58 56 -70 -3 -10 0 -17 6 -16 6 1 21 -27 33 -63 30
-85 26 -181 -11 -264 -14 -32 -32 -65 -40 -73 -8 -8 -15 -19 -15 -24 0 -6 -3
-8 -7 -6 -11 5 -52 -40 -44 -49 3 -4 0 -4 -6 0 -7 4 -13 3 -13 -3 0 -6 -11
-13 -25 -17 -14 -3 -25 -10 -25 -14 0 -4 -30 -18 -67 -31 -54 -18 -89 -23
-173 -23 -128 0 -234 13 -205 26 15 6 11 7 -12 3 -18 -2 -33 0 -33 5 0 6 -6
10 -14 10 -23 0 -97 46 -89 55 5 4 0 5 -9 2 -10 -3 -20 -1 -24 5 -4 7 -3 8 4
4 7 -4 12 -2 12 3 0 6 -9 11 -21 11 -11 0 -17 5 -14 10 3 6 -1 10 -9 10 -9 0
-16 5 -16 10 0 15 16 12 30 -5 6 -8 21 -17 33 -21 12 -4 27 -12 34 -19 7 -7
38 -21 70 -31 32 -9 63 -21 68 -25 23 -17 243 -28 266 -13 4 2 26 6 49 8 22 2
47 10 55 16 8 7 22 10 30 6 9 -3 13 -2 10 4 -3 6 3 10 15 10 13 0 19 4 14 12
-5 8 0 9 14 6 12 -4 25 -1 29 4 3 7 1 8 -5 4 -7 -4 -12 -3 -12 2 0 11 69 72
81 72 5 0 8 3 7 8 -1 4 7 25 19 47 12 22 24 62 28 88 4 27 11 44 17 41 7 -4 7
0 0 12 -5 11 -7 24 -5 31 2 6 -1 31 -8 55 -7 24 -12 54 -11 68 2 22 1 23 -7 5
-8 -19 -8 -19 -16 4 -10 31 -68 95 -119 129 -23 16 -82 45 -131 66 -50 21
-114 49 -143 62 -29 13 -57 24 -62 24 -6 0 -10 5 -10 10 0 6 -8 10 -17 10 -15
0 -16 2 -3 10 19 12 33 13 25 1z m-393 -625 c4 3 11 -3 17 -14 6 -11 7 -22 4
-26 -3 -3 1 -6 11 -6 9 0 14 -5 11 -10 -10 -16 -35 8 -35 32 0 10 -4 17 -9 13
-10 -5 -31 25 -31 42 1 4 6 -2 13 -15 7 -12 16 -20 19 -16z"/>
<path d="M2345 2140 c27 -12 43 -12 25 0 -8 5 -22 9 -30 9 -10 0 -8 -3 5 -9z"/>
<path d="M2408 2113 c7 -3 16 -2 19 1 4 3 -2 6 -13 5 -11 0 -14 -3 -6 -6z"/>
<path d="M2550 2050 c-13 -8 -12 -10 3 -10 9 0 17 5 17 10 0 12 -1 12 -20 0z"/>
<path d="M1960 1446 c0 -2 7 -7 16 -10 8 -3 12 -2 9 4 -6 10 -25 14 -25 6z"/>
<path d="M2050 1410 c8 -5 20 -10 25 -10 6 0 3 5 -5 10 -8 5 -19 10 -25 10 -5
0 -3 -5 5 -10z"/>
<path d="M2218 1363 c7 -3 16 -2 19 1 4 3 -2 6 -13 5 -11 0 -14 -3 -6 -6z"/>
<path d="M235 2591 c-3 -5 -1 -12 5 -16 5 -3 10 1 10 9 0 18 -6 21 -15 7z"/>
<path d="M670 2553 c-19 -66 -23 -167 -10 -224 7 -30 30 -89 52 -132 92 -177
248 -242 381 -157 106 67 187 225 187 364 0 59 -11 55 -16 -6 -8 -89 -41 -147
-114 -200 -110 -81 -276 -62 -368 41 -44 49 -60 96 -77 222 -10 68 -19 126
-20 127 -2 2 -9 -13 -15 -35z m13 -144 c4 -48 29 -124 47 -139 21 -18 59 -78
52 -85 -4 -5 -2 -5 5 -2 15 9 45 -2 37 -14 -3 -5 2 -9 11 -9 9 0 14 -4 11 -9
-4 -5 3 -7 15 -4 12 4 25 0 29 -7 8 -13 39 -15 169 -9 24 1 38 5 31 9 -8 5 -2
10 18 15 17 3 36 12 42 20 6 8 19 11 27 8 11 -4 14 -2 9 5 -3 6 3 16 15 22 24
14 24 12 -23 -58 -17 -24 -34 -40 -40 -36 -6 4 -8 2 -4 -4 3 -6 -6 -20 -21
-31 -16 -11 -33 -25 -39 -30 -7 -5 -31 -15 -54 -21 -63 -17 -180 14 -180 47 0
7 -7 13 -16 13 -14 0 -14 3 -4 15 11 13 10 14 -2 10 -9 -4 -28 5 -44 20 -23
21 -26 29 -17 44 8 12 8 22 1 32 -8 11 -9 11 -5 -3 3 -9 -1 -19 -9 -22 -8 -3
-13 -2 -9 3 3 5 -2 16 -10 24 -9 9 -12 23 -8 33 4 11 3 15 -4 11 -7 -5 -9 1
-6 15 4 19 3 20 -7 8 -10 -13 -11 -13 -7 0 2 8 -2 30 -9 49 -13 30 -21 151 -9
140 2 -3 6 -30 8 -60z"/>
<path d="M1150 2155 c-11 -13 -10 -14 4 -9 9 3 16 10 16 15 0 13 -6 11 -20 -6z"/>
<path d="M1814 2570 c0 -13 4 -16 10 -10 7 7 7 13 0 20 -6 6 -10 3 -10 -10z"/>
<path d="M3357 2569 c-49 -11 -127 -52 -150 -77 -31 -34 -18 -62 43 -93 141
-73 254 -53 324 55 56 86 22 127 -106 125 -40 -1 -90 -5 -111 -10z m160 -9 c8
0 11 -4 8 -10 -3 -5 -1 -10 4 -10 6 0 11 5 11 10 0 7 7 7 21 0 19 -11 19 -13
6 -33 -9 -12 -20 -21 -27 -19 -8 2 -8 -3 0 -17 12 -24 13 -34 1 -27 -5 3 -8
-2 -7 -11 0 -9 -12 -24 -29 -32 -16 -9 -32 -19 -35 -22 -20 -23 -130 -17 -130
7 0 8 -5 14 -11 14 -5 0 -7 -5 -3 -11 4 -8 -1 -9 -17 -4 -13 4 -26 12 -27 16
-2 5 -8 7 -12 4 -16 -10 -50 19 -50 41 0 28 26 49 77 64 24 7 40 17 36 23 -3
6 -2 8 3 4 5 -3 32 1 59 9 28 7 63 11 79 9 16 -3 35 -5 43 -5z m49 -87 c-10
-10 -19 5 -10 18 6 11 8 11 12 0 2 -7 1 -15 -2 -18z"/>
<path d="M3534 2524 c-18 -14 -18 -15 4 -4 12 6 22 13 22 15 0 8 -5 6 -26 -11z"/>
<path d="M3475 2490 c3 -5 11 -10 16 -10 6 0 7 5 4 10 -3 6 -11 10 -16 10 -6
0 -7 -4 -4 -10z"/>
<path d="M3410 2436 c0 -2 7 -6 15 -10 8 -3 15 -1 15 4 0 6 -7 10 -15 10 -8 0
-15 -2 -15 -4z"/>
<path d="M186 2525 c4 -8 8 -15 10 -15 2 0 4 7 4 15 0 8 -4 15 -10 15 -5 0 -7
-7 -4 -15z"/>
<path d="M908 2479 c-24 -13 -23 -36 3 -78 20 -34 20 -35 3 -48 -11 -8 -28
-12 -39 -11 -16 2 -21 12 -23 46 -4 51 -22 57 -22 6 0 -72 40 -95 93 -54 l25
20 21 -29 c12 -16 21 -36 21 -45 0 -19 -32 -21 -62 -5 -11 6 -23 8 -26 4 -11
-11 22 -25 61 -25 59 0 60 18 2 96 -7 10 0 22 25 43 53 45 64 41 57 -21 -5
-35 -3 -48 4 -41 14 14 16 90 2 104 -9 9 -22 6 -53 -15 -22 -14 -40 -31 -40
-36 0 -21 -19 -9 -40 26 -28 45 -17 58 45 56 29 -2 44 2 40 8 -8 13 -75 12
-97 -1z"/>
<path d="M130 2470 c0 -5 5 -10 10 -10 6 0 10 5 10 10 0 6 -4 10 -10 10 -5 0
-10 -4 -10 -10z"/>
<path d="M940 2446 c0 -9 7 -16 16 -16 17 0 14 22 -4 28 -7 2 -12 -3 -12 -12z"/>
<path d="M870 2386 c0 -9 7 -16 16 -16 17 0 14 22 -4 28 -7 2 -12 -3 -12 -12z"/>
<path d="M1007 2394 c-8 -8 1 -24 14 -24 5 0 9 7 9 15 0 15 -12 20 -23 9z"/>
<path d="M3808 2315 c-88 -137 -246 -213 -388 -187 -79 15 -162 48 -221 88
-28 20 -53 34 -55 31 -9 -8 173 -173 216 -195 165 -87 321 -13 444 210 42 75
44 116 4 53z m-140 -198 c-26 -27 -61 -52 -88 -61 -46 -16 -140 -22 -140 -8 0
4 -11 8 -25 8 -13 1 -36 11 -51 23 -14 11 -29 19 -33 17 -3 -2 -12 2 -19 10
-18 20 9 30 37 14 12 -6 36 -11 56 -12 19 -1 32 -4 30 -8 -5 -9 95 5 138 19
19 7 39 11 43 10 21 -4 35 2 29 11 -3 6 -3 10 2 11 22 2 45 8 51 13 3 3 7 4 9
2 3 -2 -15 -24 -39 -49z m-378 23 c0 -5 -2 -10 -4 -10 -3 0 -8 5 -11 10 -3 6
-1 10 4 10 6 0 11 -4 11 -10z"/>
<path d="M940 2315 c0 -8 5 -15 10 -15 6 0 10 7 10 15 0 8 -4 15 -10 15 -5 0
-10 -7 -10 -15z"/>
<path d="M1380 2197 c-118 -129 -254 -215 -375 -238 -72 -13 -166 3 -217 36
-62 41 -58 20 7 -40 123 -112 234 -138 345 -81 65 33 147 115 205 206 44 68
99 170 93 175 -2 1 -28 -25 -58 -58z m-35 -77 c-3 -5 -12 -10 -18 -10 -7 0 -6
4 3 10 19 12 23 12 15 0z m-27 -50 c-24 -30 -42 -37 -53 -20 -3 6 1 10 9 10 8
0 17 8 20 18 3 10 15 18 26 19 20 2 20 1 -2 -27z m-70 -83 c-21 -23 -43 -41
-48 -39 -6 1 -9 -3 -8 -10 2 -6 -10 -18 -27 -27 -16 -9 -32 -18 -35 -21 -12
-14 -84 -28 -118 -24 -20 3 -56 13 -79 24 -24 11 -47 20 -51 20 -5 0 -17 10
-28 21 -19 22 -19 22 3 10 30 -15 120 -14 176 3 26 8 47 12 47 9 0 -2 7 3 16
11 8 9 21 16 28 16 8 0 34 11 59 25 28 16 51 23 63 18 17 -6 17 -5 5 11 -13
16 -12 16 10 6 l25 -12 -38 -41z"/>
<path d="M4040 2230 c0 -5 5 -10 11 -10 5 0 7 5 4 10 -3 6 -8 10 -11 10 -2 0
-4 -4 -4 -10z"/>
<path d="M3985 2170 c3 -5 8 -10 11 -10 2 0 4 5 4 10 0 6 -5 10 -11 10 -5 0
-7 -4 -4 -10z"/>
<path d="M1745 2111 c-11 -5 -45 -7 -76 -4 -63 6 -108 -11 -135 -53 -22 -32
-15 -38 26 -21 39 17 85 9 129 -22 l31 -22 22 20 c37 35 102 54 158 48 28 -3
50 -3 50 1 0 4 -16 18 -36 31 -39 27 -131 38 -169 22z m69 -10 c3 -5 16 -7 29
-3 20 5 21 4 8 -11 -7 -9 -20 -17 -27 -17 -8 0 -37 -12 -64 -26 l-49 -25 -30
22 c-20 14 -44 22 -71 22 -29 0 -38 3 -30 11 6 6 45 11 88 12 42 0 88 5 102
12 32 14 38 14 44 3z"/>
<path d="M2981 2044 c0 -11 3 -14 6 -6 3 7 2 16 -1 19 -3 4 -6 -2 -5 -13z"/>
<path d="M1290 1960 c0 -5 5 -10 11 -10 5 0 7 5 4 10 -3 6 -8 10 -11 10 -2 0
-4 -4 -4 -10z"/>
<path d="M3525 1939 c-38 -4 -89 -14 -113 -23 -45 -16 -79 -43 -68 -53 3 -3
56 -17 118 -29 131 -27 227 -71 270 -124 63 -79 95 -258 69 -392 -34 -174
-169 -345 -361 -454 -119 -68 -340 -134 -522 -154 -130 -15 -340 -8 -423 14
-102 28 -235 123 -235 168 0 10 -5 18 -10 18 -14 0 -2 -93 17 -140 61 -151
160 -186 487 -177 215 6 314 23 491 82 443 148 692 410 712 750 7 126 -9 223
-51 312 -72 149 -204 219 -381 202z m140 -39 c17 -11 37 -20 45 -19 8 0 4 5
-9 10 -13 5 -22 12 -19 15 7 7 58 -17 58 -28 0 -4 6 -7 13 -5 7 1 11 -6 10
-18 -1 -11 0 -14 3 -7 8 17 24 15 24 -4 0 -8 4 -13 8 -10 12 7 57 -46 54 -62
-2 -7 3 -11 9 -10 15 4 45 -74 65 -166 24 -114 -2 -313 -52 -404 -13 -23 -24
-49 -24 -56 0 -7 -9 -21 -20 -31 -11 -10 -20 -24 -20 -31 0 -7 -5 -16 -12 -20
-7 -4 -8 -3 -4 4 4 7 2 12 -5 12 -7 0 -9 -8 -6 -21 5 -17 3 -18 -11 -7 -13 11
-15 11 -9 -4 7 -20 -47 -83 -63 -73 -6 4 -7 -1 -3 -11 4 -12 3 -15 -5 -10 -7
4 -12 1 -12 -9 0 -9 -4 -13 -10 -10 -5 3 -10 1 -10 -5 0 -7 -7 -10 -14 -7 -10
4 -13 1 -10 -7 4 -11 -21 -30 -34 -26 -1 0 -12 -9 -25 -20 -38 -36 -111 -81
-139 -87 -16 -3 -28 -9 -28 -14 0 -11 -27 -12 -33 -1 -2 4 -2 1 0 -7 2 -8 -2
-11 -12 -7 -9 3 -14 2 -11 -3 6 -10 -81 -41 -113 -41 -12 0 -21 -3 -21 -8 0
-10 -109 -43 -147 -44 -18 -1 -30 -5 -27 -9 3 -5 -7 -4 -21 1 -32 12 -58 12
-30 0 17 -7 14 -9 -15 -10 -19 -1 -60 -5 -90 -8 -78 -9 -368 -8 -412 1 -23 5
-38 14 -38 22 0 8 -5 15 -11 15 -5 0 -7 -4 -4 -10 8 -13 -11 -13 -36 0 -28 15
-89 79 -89 93 0 7 -7 25 -15 41 -17 33 -13 45 8 25 32 -30 57 -48 57 -41 0 4
4 2 8 -3 13 -20 133 -65 187 -71 30 -4 53 -10 51 -13 -4 -5 118 -5 342 2 21 0
28 3 20 9 -9 5 -4 8 12 7 110 -4 391 89 507 167 46 32 64 39 73 30 10 -8 11
-7 8 4 -4 13 61 73 84 76 5 1 11 3 16 4 4 1 10 2 15 1 4 0 7 4 7 9 0 14 -13
13 -28 -2 -8 -8 -12 -8 -12 -1 0 16 28 36 40 28 7 -4 10 0 8 11 -2 15 3 18 22
17 14 -1 19 0 13 3 -7 3 -13 15 -13 26 0 20 1 20 19 4 14 -13 21 -14 27 -5 4
7 3 10 -3 6 -6 -4 -14 1 -17 10 -4 10 -1 20 9 25 8 5 15 16 15 24 0 20 25 45
35 36 5 -4 5 -1 0 7 -4 7 -1 36 8 65 34 112 41 203 23 303 -12 65 -51 145 -90
188 -24 25 -41 46 -40 48 2 2 -6 4 -17 4 -29 3 -69 31 -69 49 0 8 -5 12 -10 9
-6 -4 -8 -11 -5 -16 4 -5 0 -9 -9 -9 -8 0 -16 5 -18 11 -2 6 -23 12 -46 13
-23 0 -42 3 -42 6 0 3 -15 7 -32 8 -46 2 -66 7 -75 17 -4 4 -2 5 5 1 6 -4 12
-3 12 2 0 7 15 14 95 37 6 2 42 4 80 4 54 1 77 -4 100 -19z"/>
<path d="M3831 1324 c0 -11 3 -14 6 -6 3 7 2 16 -1 19 -3 4 -6 -2 -5 -13z"/>
<path d="M3810 1221 c-6 -12 -7 -21 -1 -21 10 0 24 30 17 37 -2 3 -9 -5 -16
-16z"/>
<path d="M3525 870 c3 -5 8 -10 11 -10 2 0 4 5 4 10 0 6 -5 10 -11 10 -5 0 -7
-4 -4 -10z"/>
<path d="M3430 811 c0 -6 4 -13 10 -16 6 -3 7 1 4 9 -7 18 -14 21 -14 7z"/>
<path d="M2498 683 c7 -3 16 -2 19 1 4 3 -2 6 -13 5 -11 0 -14 -3 -6 -6z"/>
<path d="M2470 659 c0 -11 4 -18 10 -14 5 3 7 12 3 20 -7 21 -13 19 -13 -6z"/>
<path d="M2528 633 c6 -2 18 -2 25 0 6 3 1 5 -13 5 -14 0 -19 -2 -12 -5z"/>
<path d="M687 1818 c-14 -29 -31 -73 -36 -98 -39 -170 36 -416 204 -675 63
-97 102 -145 208 -253 378 -387 859 -570 1028 -392 61 64 90 193 79 350 -6 76
-13 77 -25 5 -9 -57 -59 -145 -100 -178 -166 -133 -392 -108 -635 71 -109 80
-232 194 -312 289 -63 75 -88 92 -88 61 0 -6 3 -8 7 -5 3 4 12 -1 19 -11 9
-13 10 -20 1 -32 -10 -13 -10 -13 4 -3 14 11 20 8 40 -18 31 -41 79 -98 102
-121 9 -10 17 -23 17 -29 0 -5 4 -8 8 -5 5 3 16 -3 24 -12 9 -9 34 -30 57 -46
23 -17 41 -33 41 -38 0 -4 6 -8 13 -8 7 0 20 -9 29 -19 15 -17 15 -20 -1 -37
-14 -16 -14 -16 7 1 22 18 23 18 65 -13 23 -18 57 -39 74 -48 18 -9 31 -20 28
-24 -3 -5 5 -6 17 -2 16 4 19 2 13 -8 -6 -10 -4 -12 7 -8 8 4 46 -4 84 -17
143 -50 291 -23 398 70 17 15 36 23 45 20 9 -3 12 -3 8 1 -4 4 1 17 10 28 18
21 18 21 -4 2 -28 -24 -30 -17 -3 14 11 12 17 27 14 31 -3 5 -1 9 5 9 16 0 1
-121 -22 -172 -12 -26 -24 -45 -28 -42 -4 2 -5 -5 -2 -16 4 -14 0 -20 -11 -20
-9 0 -15 -6 -14 -12 2 -7 -5 -12 -14 -12 -10 1 -15 -2 -12 -7 3 -5 -2 -9 -10
-9 -9 0 -16 -3 -16 -7 0 -5 -15 -10 -33 -12 -77 -10 -229 -2 -220 11 2 5 -8 8
-22 8 -27 0 -39 5 -163 62 -113 53 -258 149 -338 224 -24 23 -47 38 -50 35 -4
-3 -4 2 -1 12 4 11 3 16 -3 12 -16 -10 -34 6 -19 17 11 7 11 8 -1 7 -28 -4
-49 12 -112 85 -97 112 -118 139 -118 154 0 7 -5 10 -10 7 -6 -3 -10 0 -10 8
0 8 -12 26 -26 40 -16 16 -24 33 -20 44 3 10 1 25 -5 33 -8 12 -9 10 -4 -7 4
-14 2 -23 -4 -23 -6 0 -11 6 -11 14 0 8 -6 21 -12 28 -28 29 -46 74 -42 103 3
24 2 26 -5 10 -7 -17 -12 -12 -36 40 -15 33 -28 65 -29 72 -1 7 -5 16 -9 19
-4 4 -7 17 -7 29 0 11 -5 26 -11 32 -26 26 -31 260 -6 313 8 19 17 44 19 55 4
24 37 28 64 8 18 -14 18 -15 -6 -8 -19 5 -21 4 -10 -4 8 -6 26 -7 39 -4 17 4
22 2 17 -6 -4 -6 -4 -10 1 -9 13 3 53 -13 53 -21 0 -5 -6 -26 -14 -47 -17 -48
-22 -124 -18 -279 2 -70 7 -122 13 -126 6 -3 10 -10 10 -15 -1 -15 21 -78 37
-101 8 -13 12 -29 9 -37 -4 -10 -1 -13 9 -9 7 3 14 1 14 -5 0 -6 12 -25 27
-43 l27 -32 -24 13 c-24 12 -23 11 3 -14 15 -14 33 -26 40 -26 8 0 8 -3 -1 -9
-11 -7 -11 -9 2 -14 31 -12 26 14 -12 65 -111 151 -149 275 -138 447 3 58 15
141 25 183 l18 76 -41 11 c-23 6 -61 24 -84 41 -23 16 -43 30 -45 30 -2 0 -16
-24 -30 -52z"/>
<path d="M1321 1762 c-1 -19 58 -170 92 -232 65 -121 152 -221 262 -303 261
-194 580 -246 878 -143 256 90 428 240 548 483 34 67 59 128 57 135 -3 7 -16
-14 -31 -46 -59 -129 -174 -269 -293 -357 -351 -259 -815 -261 -1159 -4 -152
114 -253 248 -343 455 -6 14 -11 19 -11 12z m199 -352 c6 -11 8 -20 6 -20 -3
0 -10 9 -16 20 -6 11 -8 20 -6 20 3 0 10 -9 16 -20z m90 -92 c0 -12 -6 -9 -26
13 -19 22 -19 22 4 8 12 -8 22 -17 22 -21z m1304 11 c-10 -11 -28 -25 -39 -31
-11 -6 -4 4 15 20 41 36 51 41 24 11z m-1279 -29 c3 -5 1 -10 -4 -10 -6 0 -11
5 -11 10 0 6 2 10 4 10 3 0 8 -4 11 -10z m60 -47 c22 -14 43 -31 46 -36 3 -5
9 -8 13 -7 4 1 24 -9 44 -21 20 -13 40 -22 45 -21 4 1 7 -3 7 -9 0 -6 6 -9 14
-6 8 3 20 -1 26 -9 9 -10 9 -14 1 -14 -18 0 -101 41 -101 50 0 4 -11 11 -24
14 -14 3 -40 20 -58 36 -18 17 -38 30 -45 30 -6 0 -15 5 -18 10 -11 17 9 11
50 -17z m1118 -18 c-22 -16 -38 -8 -23 10 6 8 18 11 26 8 12 -4 12 -8 -3 -18z
m-63 -35 c-14 -11 -28 -20 -33 -20 -4 0 -24 -11 -45 -23 -53 -33 -195 -86
-250 -93 -118 -14 -184 -16 -177 -4 6 9 2 9 -14 0 -25 -13 -139 -6 -155 10 -5
5 -22 10 -37 10 -15 0 -30 4 -34 10 -3 5 -12 7 -19 4 -13 -5 -76 21 -76 31 0
2 5 7 12 11 7 5 8 3 4 -5 -5 -8 -3 -11 5 -10 25 5 99 -13 93 -22 -3 -5 0 -9 5
-9 6 0 11 4 11 10 0 6 10 5 28 -1 32 -13 344 -20 336 -8 -3 5 2 9 11 9 60 0
253 65 325 110 28 17 35 10 10 -10z"/>
<path d="M190 1750 c-9 -6 -10 -10 -3 -10 6 0 15 5 18 10 8 12 4 12 -15 0z"/>
<path d="M1075 1750 c3 -5 8 -10 11 -10 2 0 4 5 4 10 0 6 -5 10 -11 10 -5 0
-7 -4 -4 -10z"/>
<path d="M190 1710 c-8 -5 -10 -10 -5 -10 6 0 17 5 25 10 8 5 11 10 5 10 -5 0
-17 -5 -25 -10z"/>
<path d="M1020 1695 c7 -9 15 -13 17 -11 7 7 -7 26 -19 26 -6 0 -6 -6 2 -15z"/>
<path d="M960 1640 c0 -5 5 -10 11 -10 5 0 7 5 4 10 -3 6 -8 10 -11 10 -2 0
-4 -4 -4 -10z"/>
<path d="M1581 1443 c7 -12 15 -20 18 -17 3 2 -3 12 -13 22 -17 16 -18 16 -5
-5z"/>
<path d="M3255 1440 c3 -5 8 -10 11 -10 2 0 4 5 4 10 0 6 -5 10 -11 10 -5 0
-7 -4 -4 -10z"/>
<path d="M3200 1390 c0 -5 5 -10 11 -10 5 0 7 5 4 10 -3 6 -8 10 -11 10 -2 0
-4 -4 -4 -10z"/>
<path d="M651 1294 c0 -11 3 -14 6 -6 3 7 2 16 -1 19 -3 4 -6 -2 -5 -13z"/>
<path d="M957 991 c-10 -14 -10 -14 4 -4 9 7 18 10 21 7 3 -3 8 -1 12 4 9 16
-24 9 -37 -7z"/>
<path d="M2795 989 c-4 -6 -5 -12 -2 -15 2 -3 7 2 10 11 7 17 1 20 -8 4z"/>
<path d="M230 910 c0 -5 5 -10 10 -10 6 0 10 5 10 10 0 6 -4 10 -10 10 -5 0
-10 -4 -10 -10z"/>
<path d="M1015 910 c-3 -5 -2 -10 4 -10 5 0 13 5 16 10 3 6 2 10 -4 10 -5 0
-13 -4 -16 -10z"/>
<path d="M1050 916 c0 -2 7 -7 16 -10 8 -3 12 -2 9 4 -6 10 -25 14 -25 6z"/>
<path d="M1025 880 c-3 -5 1 -10 10 -10 9 0 13 5 10 10 -3 6 -8 10 -10 10 -2
0 -7 -4 -10 -10z"/>
<path d="M1850 859 c0 -5 5 -7 10 -4 6 3 10 8 10 11 0 2 -4 4 -10 4 -5 0 -10
-5 -10 -11z"/>
<path d="M959 833 c-13 -16 -12 -17 4 -4 9 7 17 15 17 17 0 8 -8 3 -21 -13z"/>
<path d="M1080 816 c0 -2 8 -10 18 -17 15 -13 16 -12 3 4 -13 16 -21 21 -21
13z"/>
<path d="M1795 810 c3 -5 11 -10 16 -10 6 0 7 5 4 10 -3 6 -11 10 -16 10 -6 0
-7 -4 -4 -10z"/>
<path d="M850 710 c0 -5 5 -10 11 -10 5 0 7 5 4 10 -3 6 -8 10 -11 10 -2 0 -4
-4 -4 -10z"/>
<path d="M795 650 c3 -5 8 -10 11 -10 2 0 4 5 4 10 0 6 -5 10 -11 10 -5 0 -7
-4 -4 -10z"/>
<path d="M2200 633 c0 -3 11 -19 25 -37 14 -17 29 -35 33 -41 27 -35 54 -129
59 -201 l6 -81 -35 -21 c-63 -39 -140 -21 -178 41 -26 42 -26 13 -1 -47 27
-62 90 -122 143 -137 59 -15 142 -7 176 18 50 37 67 80 67 168 0 70 -4 87 -30
133 -38 69 -110 134 -196 176 -38 19 -69 32 -69 29z m122 -80 c14 4 78 -65 78
-83 0 -6 5 -8 11 -4 7 4 9 0 5 -14 -4 -11 -2 -23 3 -27 7 -4 8 1 4 12 -6 15
-4 16 8 6 27 -22 42 -86 37 -167 -2 -54 -8 -80 -18 -86 -8 -5 -11 -10 -6 -10
5 0 1 -9 -9 -20 -10 -11 -22 -17 -26 -14 -5 3 -9 1 -9 -4 0 -12 -48 -26 -80
-23 -53 5 -119 34 -145 63 l-27 30 66 -4 c36 -2 60 0 53 4 -9 6 -9 8 0 8 25 0
70 50 76 84 6 36 -20 155 -47 221 -20 47 -20 48 2 36 9 -5 20 -8 24 -8z"/>
<path d="M2417 175 c3 -8 9 -12 14 -9 12 7 11 11 -5 17 -10 4 -13 1 -9 -8z"/>
<path d="M4035 550 c3 -5 8 -10 11 -10 2 0 4 5 4 10 0 6 -5 10 -11 10 -5 0 -7
-4 -4 -10z"/>
<path d="M2106 513 c-6 -14 -5 -15 5 -6 7 7 10 15 7 18 -3 3 -9 -2 -12 -12z"/>
<path d="M2500 502 c0 -4 11 -23 23 -42 31 -46 47 -94 47 -142 0 -37 1 -38 28
-32 82 20 131 66 152 143 13 50 10 57 -21 41 -32 -18 -143 -6 -186 20 -38 22
-43 24 -43 12z m105 -62 c-3 -5 12 -4 32 2 24 6 38 7 40 1 2 -6 15 -8 28 -5
24 4 24 3 14 -27 -6 -17 -15 -31 -19 -31 -5 0 -12 -9 -15 -20 -4 -11 -22 -27
-42 -35 -44 -19 -52 -19 -27 -1 10 8 16 18 11 22 -4 4 -7 2 -7 -4 0 -7 -7 -12
-15 -12 -9 0 -15 9 -15 25 0 14 -8 43 -18 63 l-18 38 28 -4 c15 -2 26 -8 23
-12z"/>
<path d="M1675 421 c-6 -11 13 -26 22 -17 4 3 1 6 -6 6 -7 0 -9 5 -6 10 3 6 4
10 1 10 -3 0 -7 -4 -11 -9z"/>
<path d="M1337 339 c7 -7 15 -10 18 -7 3 3 -2 9 -12 12 -14 6 -15 5 -6 -5z"/>
<path d="M2950 301 c0 -6 4 -13 10 -16 6 -3 7 1 4 9 -7 18 -14 21 -14 7z"/>
<path d="M3570 90 c0 -5 5 -10 11 -10 5 0 7 5 4 10 -3 6 -8 10 -11 10 -2 0 -4
-4 -4 -10z"/>
</g>
</svg>